<svg width="50" height="50" viewBox="0 0 50 50" fill="none" xmlns="http://www.w3.org/2000/svg">
<path d="M13.5237 4.41193C11.935 7.64095 11.0946 11.2085 11.0946 14.8757C11.0946 27.9968 21.741 38.6712 34.8276 38.6712C38.6765 38.6712 42.396 37.7515 45.7291 36.0157C41.6964 43.2918 34.0098 47.9953 25.3554 47.9953C12.477 47.9953 2.00135 37.492 2.00135 24.5797C2.00135 16.1338 6.51986 8.53236 13.5237 4.41193ZM18.9781 0.00188048C8.0673 2.83973 0 12.7525 0 24.5797C0 38.6185 11.3535 50 25.3554 50C37.3354 50 47.3497 41.6595 50 30.4623C46.0855 34.2968 40.736 36.6645 34.8295 36.6645C22.827 36.6645 13.096 26.9079 13.096 14.8738C13.096 9.11724 15.3393 3.89476 18.98 0L18.9781 0.00188048Z" fill="white"/>
</svg>
